<mxfile host="app.diagrams.net" modified="2023-08-25T16:57:19.727Z" agent="Mozilla/5.0 (Windows NT 10.0; Win64; x64) AppleWebKit/537.36 (KHTML, like Gecko) Chrome/116.0.0.0 Safari/537.36" etag="d_f4GSHmLt2XLwwxnGn3" version="21.6.9" type="device">
  <diagram name="Página-1" id="rjJT_u-r0g-DR6_hV9pf">
    <mxGraphModel dx="-127" dy="383" grid="1" gridSize="10" guides="1" tooltips="1" connect="1" arrows="1" fold="1" page="1" pageScale="1" pageWidth="827" pageHeight="1169" math="0" shadow="0">
      <root>
        <mxCell id="0" />
        <mxCell id="1" parent="0" />
        <mxCell id="KBenGIEXpVHEUypA9DZl-1" value="Gato" style="swimlane;fontStyle=1;align=center;verticalAlign=top;childLayout=stackLayout;horizontal=1;startSize=26;horizontalStack=0;resizeParent=1;resizeParentMax=0;resizeLast=0;collapsible=1;marginBottom=0;whiteSpace=wrap;html=1;fillColor=#fff2cc;strokeColor=#d6b656;gradientColor=#ffd966;" vertex="1" parent="1">
          <mxGeometry x="1040" y="140" width="340" height="310" as="geometry" />
        </mxCell>
        <mxCell id="KBenGIEXpVHEUypA9DZl-2" value="+ Cor: string&lt;br&gt;+ Nome: string&lt;br&gt;+ Idade: int&lt;br&gt;+ Raça: string&lt;br&gt;+ Genêro:&amp;nbsp;&lt;br&gt;+ Olho: string&lt;br&gt;+ Doméstico: string&lt;br&gt;+ Carinhoso: String&lt;br&gt;+ Peso: decimal&lt;br&gt;&amp;nbsp;" style="text;strokeColor=#b85450;fillColor=#f8cecc;align=left;verticalAlign=top;spacingLeft=4;spacingRight=4;overflow=hidden;rotatable=0;points=[[0,0.5],[1,0.5]];portConstraint=eastwest;whiteSpace=wrap;html=1;gradientColor=#ea6b66;" vertex="1" parent="KBenGIEXpVHEUypA9DZl-1">
          <mxGeometry y="26" width="340" height="144" as="geometry" />
        </mxCell>
        <mxCell id="KBenGIEXpVHEUypA9DZl-3" value="" style="line;strokeWidth=1;fillColor=none;align=left;verticalAlign=middle;spacingTop=-1;spacingLeft=3;spacingRight=3;rotatable=0;labelPosition=right;points=[];portConstraint=eastwest;strokeColor=inherit;" vertex="1" parent="KBenGIEXpVHEUypA9DZl-1">
          <mxGeometry y="170" width="340" height="8" as="geometry" />
        </mxCell>
        <mxCell id="KBenGIEXpVHEUypA9DZl-4" value="+ Miar(): Void&lt;br&gt;+ Dormir(): Void&lt;br&gt;+ Correr(): void&lt;br&gt;+ Arranhar():void&lt;br&gt;+ Beber(): Void&lt;br&gt;+ Pular(): void&lt;br&gt;+ Morder(): Void" style="text;strokeColor=#6c8ebf;fillColor=#dae8fc;align=left;verticalAlign=top;spacingLeft=4;spacingRight=4;overflow=hidden;rotatable=0;points=[[0,0.5],[1,0.5]];portConstraint=eastwest;whiteSpace=wrap;html=1;gradientColor=#7ea6e0;" vertex="1" parent="KBenGIEXpVHEUypA9DZl-1">
          <mxGeometry y="178" width="340" height="132" as="geometry" />
        </mxCell>
      </root>
    </mxGraphModel>
  </diagram>
</mxfile>
